<svg xmlns="http://www.w3.org/2000/svg" width="256" height="256" viewBox="0 0 256 256">
  <defs>
    <linearGradient id="bg" x1="0" y1="0" x2="1" y2="1">
      <stop offset="0%" stop-color="#0f3d56"/>
      <stop offset="100%" stop-color="#2c7da0"/>
    </linearGradient>
    <linearGradient id="accent" x1="0" y1="0" x2="1" y2="0">
      <stop offset="0%" stop-color="#ffd166"/>
      <stop offset="100%" stop-color="#f4a261"/>
    </linearGradient>
  </defs>

  <rect x="14" y="14" width="228" height="228" rx="52" fill="url(#bg)"/>

  <g opacity="0.25" fill="none" stroke="#ffffff" stroke-width="6">
    <path d="M36 96 C84 60, 172 64, 220 104"/>
    <path d="M36 140 C84 104, 172 108, 220 148"/>
  </g>

  <polyline
    points="44,170 80,142 108,154 140,112 176,124 212,86"
    fill="none"
    stroke="url(#accent)"
    stroke-width="14"
    stroke-linecap="round"
    stroke-linejoin="round"
  />

  <g fill="#ffffff">
    <circle cx="80" cy="142" r="8"/>
    <circle cx="108" cy="154" r="8"/>
    <circle cx="140" cy="112" r="8"/>
    <circle cx="176" cy="124" r="8"/>
  </g>

  <circle cx="52" cy="170" r="10" fill="#ffd166"/>
  <circle cx="212" cy="86" r="10" fill="#ffd166"/>

  <text x="128" y="66" text-anchor="middle" fill="#ffffff" font-family="Segoe UI, Arial, sans-serif" font-size="30" font-weight="700">GOT</text>
</svg>
